<svg width="611" height="597" viewBox="0 0 611 597" fill="none" xmlns="http://www.w3.org/2000/svg">
<path opacity="0.1" d="M512.693 436.38C512.261 436.74 511.828 437.1 511.388 437.453C496.547 449.611 480.605 459.914 463.699 467.403C463.14 467.653 462.578 467.901 462.012 468.145C451.285 472.809 440.108 476.24 428.699 478.369C422.529 479.506 416.255 480.225 410.22 479.437C401.763 478.331 394.23 474.326 387.034 470.152C379.553 465.818 372.178 461.194 364.724 456.691C362.089 455.086 359.452 453.513 356.814 451.97C349.534 447.711 342.141 443.676 334.512 440.21C325.063 435.945 315.274 432.522 304.868 430.677C304.038 430.525 303.207 430.388 302.375 430.265C301.545 430.136 300.702 430.008 299.874 429.906C299.046 429.804 298.217 429.696 297.389 429.601L296.102 429.468C295.683 429.419 295.254 429.388 294.839 429.343C293.593 429.22 292.332 429.136 291.09 429.03L291.042 429.027C290.216 428.967 289.394 428.91 288.571 428.852C283.888 428.575 279.179 428.452 274.474 428.346L271.503 428.281C269.974 428.241 268.447 428.2 266.921 428.157C266.024 428.134 265.124 428.101 264.227 428.071C263.575 428.05 262.927 428.032 262.271 428.001C258.966 427.87 255.665 427.682 252.383 427.393C251.601 427.325 250.813 427.251 250.041 427.179C243.521 426.543 237.1 425.274 230.869 423.389L230.788 423.365C227.729 422.425 224.748 421.266 221.868 419.895C220.214 419.115 218.627 418.256 217.078 417.318C212.927 414.846 209.205 411.729 206.044 408.079C199.855 400.873 196.2 391.652 190.124 384.354C177.567 369.32 156.791 364.604 137.871 358.638C133.238 357.18 128.645 355.6 124.094 353.898C121.075 352.774 118.081 351.6 115.112 350.375C97.0189 342.919 79.8006 333.595 63.7259 322.547C57.1627 318.037 50.6524 312.949 44.992 307.181C42.8472 305.011 40.8294 302.717 38.948 300.311C32.5473 292.127 28.1179 282.706 27.3688 271.871C26.6831 262.943 28.6814 253.784 31.7211 245.057C32.9412 241.55 34.337 238.091 35.9085 234.68C38.368 229.33 41.2168 224.159 44.4308 219.209C45.155 218.091 45.8968 216.982 46.6711 215.901C47.9725 214.023 49.3285 212.18 50.7391 210.371C58.2165 200.74 67.0851 192.272 77.0317 185.265C88.0645 177.516 100.373 171.61 110.835 163.2C111.274 162.847 111.707 162.487 112.14 162.127C113.68 160.838 115.187 159.471 116.66 158.027C128.159 146.618 135.012 131.628 142.62 117.261C142.887 116.757 143.153 116.253 143.424 115.753C144.274 114.167 145.141 112.593 146.025 111.031C154.437 96.1534 165.486 82.0091 178.725 71.369C179.161 71.0122 179.611 70.6611 180.055 70.3175C188.381 63.8363 197.555 58.7601 207.467 55.7511C217.641 52.66 228.16 51.8716 238.456 52.0906C243.477 52.204 248.462 52.56 253.412 53.1585C256.966 53.5922 260.492 54.1424 263.987 54.8093C292.186 60.2507 318.208 73.5409 338.353 93.1135C339.423 94.1476 340.473 95.1995 341.504 96.2693C342.585 97.3921 343.645 98.5317 344.685 99.6882C356.897 113.161 366.641 128.733 375.975 144.619C379.093 149.953 382.2 155.277 385.307 160.601C386.691 162.967 388.081 165.323 389.478 167.67C396.347 179.157 403.642 190.475 411.635 201.171C413.487 203.654 415.373 206.091 417.296 208.483C423.941 216.84 431.217 224.663 439.062 231.887C442.116 234.679 445.269 237.357 448.52 239.921C450.163 241.217 451.838 242.478 453.545 243.706C471.134 256.431 491.108 265.23 510.889 274.382C513.749 275.703 516.61 277.031 519.436 278.369C523.17 280.14 526.884 281.94 530.554 283.814C553.431 295.449 567.848 312.695 576.929 337.547C578.985 343.187 580.648 349.28 579.535 355.511C578.423 361.742 574.606 367.338 570.815 372.622C565.416 380.135 559.732 387.571 553.722 394.776C553.358 395.195 552.994 395.615 552.655 396.056C540.518 410.674 527.131 424.397 512.693 436.38Z" fill="#536DFE"/>
<path d="M320.346 374.703C319.178 375.628 318.011 376.552 316.843 377.474C316.158 378.017 315.464 378.555 314.775 379.094C314.275 379.485 313.779 379.877 313.269 380.264C310.715 382.233 308.128 384.159 305.489 386C304.861 386.439 304.224 386.878 303.601 387.308C298.318 390.921 292.7 394.017 286.823 396.551L286.747 396.584V374.703H320.346Z" fill="#65617D"/>
<path d="M372.879 288.708L373.408 272.397C373.092 272.152 372.771 271.925 372.464 271.699C372.594 266.836 372.317 261.97 371.633 257.154C369.499 240.843 355.644 240.489 351.735 243.855C351.217 244.302 350.652 244.692 350.049 245.017C350.403 242.689 350.842 240.357 351.159 238.053C352.868 225.628 350.215 211.65 340.575 203.619C336.538 200.263 331.605 198.2 327.172 195.391C319.232 190.382 312.958 182.984 304.927 178.108C296.897 173.231 285.619 171.404 278.613 177.674C275.899 180.1 274.147 183.466 271.362 185.808C266.169 190.17 258.073 190.458 253.541 195.33C253.314 195.575 253.097 195.825 252.889 196.09C249.113 200.933 250.147 207.802 251.35 213.812C252.8 221.044 252.2 226.841 258.403 228.918C258.427 229.206 258.446 229.494 258.479 229.778C258.984 234.214 260.452 238.487 262.781 242.297C265.11 246.107 268.243 249.361 271.962 251.833L270.956 252.192C268.275 253.136 265.862 254.052 264.319 254.68C258.654 256.989 246.729 259.996 246.729 259.996C246.729 259.996 246.445 263.395 246.497 268.408C242.522 272.728 235.89 280.319 233.94 284.818C231.107 291.38 215.104 310.174 210.841 313.011C206.578 315.848 201.956 319.214 201.956 319.214C201.956 319.214 195.205 322.939 192.009 323.293C189.795 323.538 182.945 322.226 182.945 322.226C182.945 322.226 155.588 288.708 157.363 314.427C159.138 340.146 180.991 341.02 180.991 341.02L203.023 340.666C203.023 340.666 214.929 342.261 220.259 337.833C224.81 334.057 248.395 313.337 255.972 303.937C256.147 304.131 256.322 304.32 256.506 304.504C256.506 304.504 259.522 300.605 259.881 304.504C260.24 308.403 257.922 310.169 259.168 311.585C260.415 313.002 264.144 317.968 264.319 319.918C264.493 321.867 259.348 329.831 268.048 335.874C268.185 335.969 268.331 336.058 268.492 336.148C270.045 339.684 274.983 343.144 274.983 343.144L301.632 342.79L351.914 346.69C351.914 346.69 353.411 345.372 355.436 343.22C358.141 345.703 361.894 347.832 366.124 346.524C366.124 346.524 372.167 339.259 372.346 334.472C372.346 334.472 368.437 324.365 366.681 321.353C364.925 318.341 367.927 311.779 367.927 311.779C367.927 311.779 370.056 305.396 371.303 305.396C372.549 305.396 371.657 301.147 371.657 301.147C371.186 300.453 370.891 299.654 370.798 298.82C370.705 297.986 370.817 297.142 371.123 296.361C372.167 293.674 372.879 288.708 372.879 288.708Z" fill="url(#paint0_linear)"/>
<path d="M342.737 285.035L340.848 287.245L333.22 296.129L323.254 296.733L307.302 297.715C307.302 297.715 285.794 271.798 289.835 266.156C291.303 264.122 291.544 261.436 291.251 258.901C291.213 258.551 291.161 258.202 291.1 257.857C290.617 255.175 289.772 252.57 288.589 250.115L289.117 249.874L289.457 249.718L308.265 241.136L312.92 239.012C313.152 240.295 313.582 241.534 314.195 242.684C314.284 242.864 314.383 243.043 314.487 243.213C320.903 253.835 341.476 247.117 341.476 247.117L342.737 285.035Z" fill="#EE8E9E"/>
<path d="M370.547 271.774C370.406 278.204 369.358 280.98 369.358 280.98L342.737 285.035L341.741 278.124L337.799 250.833L341.5 247.131C342.979 247.45 344.511 247.425 345.978 247.059C347.446 246.692 348.81 245.993 349.964 245.016C353.84 241.665 367.592 242.019 369.707 258.235C370.328 262.72 370.609 267.246 370.547 271.774Z" fill="#EE8E9E"/>
<path d="M364.245 347.086C364.245 347.086 370.236 339.858 370.415 335.1L364.42 325.049L359.132 319.384L349.256 338.447C349.256 338.447 355.781 349.73 364.245 347.086Z" fill="#DFE5EE"/>
<path opacity="0.1" d="M364.245 347.086C364.245 347.086 370.236 339.858 370.415 335.1L364.42 325.049L359.132 319.384L349.256 338.447C349.256 338.447 355.781 349.73 364.245 347.086Z" fill="black"/>
<path d="M314.775 379.094C314.275 379.485 313.779 379.877 313.269 380.264C310.715 382.233 308.128 384.159 305.489 386C304.861 386.439 304.224 386.878 303.601 387.308H277.82H161.999H153.006L108.45 385.712L72.6189 385.41L63.6492 384.938L18.8955 382.578C17.256 377.192 16.0235 371.691 15.2085 366.121C15.0244 364.865 14.8592 363.604 14.7365 362.344L63.6304 365.054L72.6 365.559L152.987 370.044L161.98 370.544L277.801 377.012L286.714 377.512H286.79L314.775 379.094Z" fill="#D48A9B"/>
<path d="M375.174 343.928C365.35 346.76 355.818 350.41 346.849 355.579C346.136 355.99 345.432 356.41 344.72 356.839C344.007 357.269 343.303 357.699 342.619 358.142C341.934 358.586 341.245 359.025 340.565 359.474L339.517 360.182L338.493 360.88C337.482 361.574 336.486 362.297 335.49 362.995L335.453 363.024C334.796 363.496 334.145 363.968 333.493 364.44C329.816 367.164 326.219 370.015 322.635 372.876C321.88 373.48 321.123 374.083 320.365 374.684L316.871 377.455C316.187 377.998 315.493 378.536 314.803 379.075C314.303 379.466 313.807 379.858 313.298 380.245L286.861 378.985H286.785L277.872 378.57L161.999 373.079L153.006 372.65L72.6189 368.83L63.6493 368.401L15.2085 366.121C15.0244 364.865 14.8592 363.604 14.7365 362.344C14.491 360.182 14.3084 358.01 14.1888 355.829L63.6445 338.362L72.6142 335.185L80.7624 332.305L95.6094 333.079L129.925 334.84L153.02 336.053L162.013 336.526L167.758 336.828L169.132 336.903L217.483 339.429L217.993 339.462L239.567 340.585H239.813H239.954L242.112 340.694L249.467 341.081L258.663 341.553L261.694 341.714L262.265 341.747L266.552 341.969L267.774 342.03L271.867 342.247L273.496 342.337H273.548H273.888L277.716 342.54L283.646 342.851H283.674L285.515 342.946H285.714L286.814 343.007L289.514 343.149L291.874 343.272H291.898L294.546 343.409H294.589L296.595 343.517L298.134 343.597L303.596 343.885L304.578 343.937H304.918L305.39 343.966L306.99 344.051L307.708 344.088L313.279 344.376H313.789L322.012 344.306H322.069L353.335 344.051H353.935H354.567H356.427L366.492 343.97H367.993L375.174 343.928Z" fill="#EFC6CD"/>
<path d="M164.156 344.575L167.064 360.045L246.129 358.855C246.129 358.855 252.077 360.574 251.945 355.815C251.945 355.815 263.979 344.442 324.93 357.666L301.528 339.287L237.561 342.724L163.387 340.741L164.156 344.575Z" fill="#536DFE"/>
<path d="M165.61 340.874L168.386 357.666C168.386 357.666 236.366 355.683 247.054 357.533L238.977 342.195C238.977 342.195 197.873 338.362 165.61 340.874Z" fill="white"/>
<path opacity="0.1" d="M165.61 340.874L168.386 357.666C168.386 357.666 236.366 355.683 247.054 357.533L238.977 342.195C238.977 342.195 197.873 338.362 165.61 340.874Z" fill="black"/>
<path d="M166.625 340.812L169.363 356.429C169.363 356.429 236.48 354.588 247.054 356.306L239.09 342.044C239.09 342.044 198.482 338.475 166.625 340.812Z" fill="white"/>
<path opacity="0.1" d="M167.857 341.294L170.525 355.9C170.525 355.9 236.168 354.177 246.53 355.787L238.741 342.441C238.741 342.441 199.02 339.089 167.857 341.294Z" fill="black"/>
<path d="M168.386 340.76L171.068 355.395C171.068 355.395 236.711 353.672 247.073 355.282L239.265 341.922C239.265 341.922 199.548 338.574 168.386 340.76Z" fill="white"/>
<path d="M121.942 301.044C121.942 301.044 125.379 305.533 120.361 312.317C115.343 319.101 111.198 324.823 112.874 329.052C112.874 329.052 120.427 316.457 126.611 316.306C132.796 316.155 128.726 308.616 121.942 301.044Z" fill="#536DFE"/>
<path opacity="0.1" d="M121.942 301.044C122.244 301.479 122.481 301.956 122.646 302.46C128.66 309.541 131.866 316.15 126.083 316.292C120.696 316.443 114.238 326.074 112.689 328.51C112.743 328.692 112.804 328.876 112.874 329.062C112.874 329.062 120.427 316.467 126.611 316.316C132.796 316.164 128.726 308.616 121.942 301.044Z" fill="black"/>
<path d="M128.33 306.77C128.33 308.347 128.15 309.631 127.933 309.631C127.716 309.631 127.537 308.347 127.537 306.77C127.537 305.193 127.758 305.93 127.976 305.93C128.193 305.93 128.33 305.189 128.33 306.77Z" fill="#FFD037"/>
<path d="M130.52 308.654C129.132 309.414 127.924 309.872 127.82 309.678C127.716 309.485 128.764 308.734 130.142 307.96C131.521 307.185 130.983 307.752 131.087 307.96C131.191 308.167 131.908 307.898 130.52 308.654Z" fill="#FFD037"/>
<path d="M103.8 301.044C103.8 301.044 100.363 305.533 105.386 312.317C110.409 319.101 114.545 324.823 112.874 329.052C112.874 329.052 105.297 316.457 99.1312 316.306C92.9657 316.155 97.0162 308.616 103.8 301.044Z" fill="#536DFE"/>
<path opacity="0.1" d="M103.8 301.044C103.501 301.48 103.264 301.957 103.097 302.46C97.0823 309.541 93.8768 316.15 99.6599 316.292C105.046 316.443 111.509 326.074 113.058 328.51C113.007 328.692 112.946 328.876 112.874 329.062C112.874 329.062 105.297 316.467 99.1312 316.316C92.9657 316.164 97.0162 308.616 103.8 301.044Z" fill="black"/>
<path d="M97.4128 306.77C97.4128 308.347 97.5922 309.631 97.8094 309.631C98.0265 309.631 98.2059 308.347 98.2059 306.77C98.2059 305.193 97.9841 305.93 97.7669 305.93C97.5497 305.93 97.4128 305.189 97.4128 306.77Z" fill="#FFD037"/>
<path d="M95.2223 308.654C96.6103 309.414 97.8235 309.872 97.9274 309.678C98.0312 309.485 96.9832 308.734 95.6047 307.96C94.2262 307.185 94.7644 307.752 94.6605 307.96C94.5567 308.167 93.8344 307.898 95.2223 308.654Z" fill="#FFD037"/>
<path d="M131.342 322.996L131.172 324.412L130.931 326.39L130.832 327.216L130.591 329.199L130.487 330.025L130.242 332.008L127.494 354.536C127.249 356.547 123.963 358.114 119.997 358.114H105.731C101.765 358.114 98.4845 356.547 98.239 354.536L95.4867 332.008L95.2459 330.025L95.1468 329.199L94.9013 327.216L94.8022 326.39L94.5614 324.412L94.3868 322.996C94.2498 321.858 96.0249 320.9 98.272 320.9H127.475C129.718 320.9 131.497 321.858 131.342 322.996Z" fill="#65617D"/>
<path d="M131.186 324.398L130.945 326.38H94.8022L94.5614 324.398H131.186Z" fill="#9D9CB5"/>
<path d="M130.846 327.207L130.605 329.189H95.1468L94.9013 327.207H130.846Z" fill="#9D9CB5"/>
<path d="M130.501 330.016L130.261 331.994H95.4867L95.246 330.016H130.501Z" fill="#9D9CB5"/>
<path d="M174.91 321.173C174.91 321.173 165.742 312.36 166.097 323.817C166.451 335.275 174.91 321.173 174.91 321.173Z" fill="#EE8E9E"/>
<path d="M257.237 301.077C257.034 301.964 256.048 303.437 254.509 305.283C246.559 314.857 223.941 334.755 219.508 338.447C214.221 342.856 202.409 341.279 202.409 341.279L180.552 341.634C180.552 341.634 158.869 340.751 157.103 315.197C155.338 289.643 182.487 322.953 182.487 322.953C182.487 322.953 189.285 324.256 191.481 324.011C194.653 323.661 201.352 319.96 201.352 319.96C201.352 319.96 205.936 316.608 210.166 313.79C214.396 310.972 230.262 292.282 233.085 285.757C234.875 281.617 240.639 274.848 244.619 270.457C246.903 267.932 248.598 266.208 248.598 266.208C248.598 266.208 258.47 295.61 257.237 301.077Z" fill="#EE8E9E"/>
<path opacity="0.1" d="M257.237 301.077C257.034 301.964 256.048 303.437 254.509 305.283C246.483 297.111 244.807 280.805 244.619 270.438C246.903 267.913 248.598 266.19 248.598 266.19C248.598 266.19 258.47 295.61 257.237 301.077Z" fill="black"/>
<path opacity="0.1" d="M340.844 287.245L333.22 296.129L323.254 296.733L307.302 297.715C307.302 297.715 285.794 271.798 289.835 266.156C291.303 264.122 291.544 261.436 291.251 258.901C291.213 258.551 291.161 258.202 291.1 257.857C290.617 255.175 289.772 252.57 288.589 250.115L289.117 249.874L289.457 249.718C290.297 252.057 290.876 254.481 291.185 256.946C291.237 257.281 291.284 257.631 291.331 257.989C291.497 259.264 291.648 260.68 291.803 262.238C293.031 276.505 302.005 281.872 306.056 283.581C307.358 284.13 308.631 284.747 309.87 285.427C313.767 287.576 318.261 288.389 322.664 287.74C332.662 286.428 340.815 279.162 340.815 279.162L340.858 286.315L340.844 287.245Z" fill="black"/>
<path d="M341.151 342.682C341.151 342.682 275.573 342.502 266.929 336.511C258.285 330.521 263.408 322.585 263.228 320.645C263.049 318.704 259.352 313.771 258.12 312.355C256.888 310.939 259.178 309.182 258.824 305.307C258.469 301.431 255.476 305.307 255.476 305.307C243.131 292.787 245.775 261.058 245.775 261.058C245.775 261.058 257.577 258.065 263.242 255.766C264.777 255.143 267.165 254.255 269.851 253.297L270.848 252.938C277.773 250.46 286.006 247.66 286.006 247.66C286.006 247.66 287.588 246.541 289.179 249.888C289.906 251.427 290.637 253.906 291.223 257.867C291.275 258.202 291.322 258.551 291.369 258.91C291.534 260.185 291.685 261.601 291.841 263.159C293.069 277.425 302.043 282.793 306.093 284.502C307.396 285.051 308.669 285.667 309.908 286.348C313.805 288.497 318.299 289.309 322.701 288.661C332.7 287.348 340.853 280.083 340.853 280.083L340.896 287.235L341.018 308.724L341.151 342.682Z" fill="#DFE5EE"/>
<path d="M338.328 314.829L337.27 321.527C337.27 321.527 311.178 328.047 300.957 329.987C290.737 331.927 268.695 329.458 267.109 333.688C265.522 337.918 273.808 343.739 273.808 343.739L300.244 343.385L350.134 347.266C350.134 347.266 369.174 330.516 363.003 318.879C356.833 307.242 338.328 314.829 338.328 314.829Z" fill="#EE8E9E"/>
<path opacity="0.1" d="M284.562 261.941C284.562 261.941 272.571 271.812 274.865 276.575C277.159 281.339 284.562 261.941 284.562 261.941Z" fill="black"/>
<path opacity="0.1" d="M269.752 279.743C269.752 279.743 257.587 300.723 258.295 302.309C259.003 303.895 262.35 309.536 262.171 305.307C261.991 301.077 269.752 279.743 269.752 279.743Z" fill="black"/>
<path opacity="0.1" d="M274.69 283.449C274.69 283.449 271.858 296.493 269.049 301.959C266.24 307.426 274.69 283.449 274.69 283.449Z" fill="black"/>
<path opacity="0.1" d="M314.511 243.227C312.18 247.502 308.859 251.156 304.826 253.885C300.794 256.613 296.166 258.336 291.331 258.91H291.275C283.669 259.803 276.006 257.797 269.814 253.292C276.895 250.733 285.968 247.655 285.968 247.655C285.968 247.655 287.55 246.537 289.141 249.884L312.943 239.026C313.211 240.509 313.742 241.932 314.511 243.227Z" fill="black"/>
<path d="M318.231 227.563C318.24 232.873 316.856 238.091 314.218 242.699C312.958 244.896 311.431 246.928 309.672 248.751C304.764 253.86 298.225 257.093 291.185 257.89H291.124C289.998 258.019 288.867 258.084 287.734 258.084C280.241 258.084 273.01 255.325 267.421 250.334C261.831 245.343 258.275 238.469 257.431 231.024C257.3 229.881 257.235 228.732 257.237 227.582C257.237 219.494 260.45 211.737 266.17 206.018C271.889 200.299 279.646 197.086 287.734 197.086C295.822 197.086 303.579 200.299 309.299 206.018C315.018 211.737 318.231 219.494 318.231 227.582V227.563Z" fill="#EE8E9E"/>
<path opacity="0.1" d="M337.978 285.271L340.811 281.022C340.811 281.022 356.323 262.512 371.496 274.324L370.968 290.544C370.968 290.544 370.259 295.478 369.202 298.098C368.898 298.875 368.788 299.715 368.88 300.545C368.972 301.374 369.264 302.169 369.731 302.861C369.731 302.861 370.613 307.11 369.381 307.11C368.149 307.11 366.03 313.455 366.03 313.455C366.03 313.455 363.032 319.979 364.797 322.977C366.563 325.974 370.439 336.02 370.439 336.02C370.439 336.02 364.269 332.319 362.503 326.149C362.503 326.149 347.519 314.512 335.882 321.9L337.978 285.271Z" fill="black"/>
<path opacity="0.1" d="M370.547 271.774C370.406 278.204 369.358 280.98 369.358 280.98L342.737 285.035L341.741 278.124C345.225 274.489 357.895 262.932 370.547 271.774Z" fill="black"/>
<path d="M337.978 284.327L340.811 280.078C340.811 280.078 356.323 261.568 371.496 273.379L370.968 289.6C370.968 289.6 370.259 294.534 369.202 297.154C368.898 297.931 368.788 298.771 368.88 299.6C368.972 300.43 369.264 301.225 369.731 301.917C369.731 301.917 370.613 306.166 369.381 306.166C368.149 306.166 366.03 312.511 366.03 312.511C366.03 312.511 363.032 319.035 364.797 322.033C366.563 325.03 370.439 335.076 370.439 335.076C370.439 335.076 364.269 331.375 362.503 325.205C362.503 325.205 347.519 313.568 335.882 320.956L337.978 284.327Z" fill="#DFE5EE"/>
<path opacity="0.1" d="M363.008 272.341C363.008 272.341 337.449 288.033 338.682 301.794C338.682 301.794 352.962 276.571 363.008 272.341Z" fill="black"/>
<path opacity="0.1" d="M340.839 287.249L340.962 308.739C336.128 308.956 331.572 308.328 327.97 305.198C325.463 303.017 324.004 300.005 323.249 296.748C322.687 294.123 322.481 291.435 322.635 288.755C322.633 288.729 322.633 288.702 322.635 288.675C322.933 282.741 324.297 276.807 323.58 270.91C322.862 265.014 319.288 258.792 313.453 257.55C312.301 257.3 311.008 257.21 310.186 256.365C309.28 255.421 309.323 253.953 309.422 252.645L309.592 250.441C309.634 249.874 309.653 249.312 309.653 248.751C309.65 243.739 307.906 238.883 304.72 235.014C301.535 231.144 297.104 228.501 292.186 227.535L291.997 227.502C290.354 227.172 288.645 226.846 287.002 227.224C283.877 227.946 281.857 230.977 278.977 232.417C273.453 235.174 264.243 232.157 258.46 231.208C258.082 231.147 257.724 231.076 257.379 230.996C257.248 229.853 257.183 228.704 257.185 227.554C257.188 222.883 258.263 218.275 260.328 214.085C262.393 209.895 265.393 206.236 269.096 203.389C272.799 200.543 277.107 198.585 281.687 197.666C286.267 196.748 290.997 196.894 295.511 198.093C300.026 199.292 304.204 201.513 307.725 204.582C311.246 207.652 314.014 211.49 315.817 215.799C317.619 220.108 318.408 224.774 318.122 229.436C317.835 234.098 316.482 238.633 314.166 242.689C314.256 242.869 314.355 243.048 314.459 243.218C320.875 253.84 341.448 247.122 341.448 247.122L342.685 285.026L340.839 287.249Z" fill="black"/>
<path d="M280.086 231.893C282.947 230.448 284.968 227.417 288.112 226.7C289.75 226.322 291.459 226.648 293.111 226.973L293.3 227.011C298.5 228.04 303.142 230.941 306.346 235.163C309.551 239.385 311.095 244.637 310.687 249.922L310.517 252.126C310.413 253.429 310.371 254.907 311.286 255.841C312.103 256.686 313.397 256.786 314.549 257.022C320.384 258.268 323.957 264.457 324.675 270.386C325.392 276.316 324.004 282.269 323.731 288.227C323.457 294.184 324.552 300.76 329.056 304.674C336.137 310.811 346.901 307.318 356.272 306.756C352.127 306.756 349.02 302.479 348.794 298.343C348.567 294.208 350.408 290.271 352.169 286.541C353.93 282.812 355.696 278.799 355.304 274.673C354.766 269.008 350.3 264.471 348.591 259.019C346.598 252.674 348.52 245.862 349.422 239.267C351.116 226.917 348.477 213.014 338.918 205.031C334.914 201.693 330.019 199.64 325.619 196.845C317.735 191.846 311.518 184.514 303.549 179.652C295.58 174.789 284.392 172.986 277.438 179.217C274.747 181.63 273.01 184.977 270.243 187.304C264.838 191.86 256.246 191.945 251.912 197.534C248.183 202.345 249.193 209.176 250.387 215.148C251.978 223.112 251.081 229.31 259.593 230.726C265.352 231.638 274.558 234.654 280.086 231.893Z" fill="#603556"/>
<path opacity="0.1" d="M350.219 302.951C343.398 303.786 336.637 304.216 331.671 299.911C327.167 295.997 326.058 289.426 326.346 283.463C326.634 277.501 328.012 271.543 327.29 265.618C326.568 259.694 322.999 253.505 317.164 252.258C316.012 252.013 314.723 251.923 313.902 251.078C312.991 250.134 313.028 248.661 313.132 247.358L313.302 245.153C313.71 239.869 312.166 234.618 308.961 230.397C305.757 226.175 301.115 223.276 295.915 222.248L295.727 222.21C294.074 221.884 292.365 221.559 290.727 221.936C287.602 222.659 285.581 225.713 282.702 227.129C277.174 229.891 267.973 226.874 262.18 225.925C253.683 224.533 254.57 218.325 252.974 210.347C252.082 205.89 251.294 200.952 252.502 196.732C252.276 196.972 252.059 197.204 251.851 197.492C248.121 202.302 249.132 209.133 250.326 215.105C251.917 223.069 251.02 229.268 259.532 230.684C265.319 231.628 274.525 234.649 280.053 231.888C282.914 230.443 284.935 227.412 288.079 226.695C289.717 226.317 291.426 226.643 293.078 226.969L293.267 227.006C298.467 228.035 303.109 230.936 306.313 235.158C309.518 239.381 311.062 244.632 310.654 249.917L310.484 252.121C310.38 253.424 310.338 254.902 311.253 255.837C312.07 256.682 313.364 256.781 314.516 257.017C320.351 258.263 323.924 264.452 324.642 270.382C325.359 276.311 323.976 282.264 323.698 288.222C323.419 294.179 324.519 300.756 329.023 304.669C336.104 310.806 346.868 307.313 356.238 306.751C353.694 306.765 351.555 305.151 350.219 302.951Z" fill="black"/>
<path d="M158.628 318.7L187.732 307.842C188.42 307.585 189.182 307.612 189.85 307.916C190.519 308.221 191.039 308.778 191.296 309.466C191.553 310.154 191.527 310.916 191.222 311.584C190.918 312.252 190.36 312.772 189.673 313.03L160.568 323.888L154.327 323.265L158.628 318.7Z" fill="#5C5C8E"/>
<path opacity="0.1" d="M190.418 308.578C190.675 309.267 190.648 310.029 190.342 310.698C190.037 311.366 189.478 311.886 188.79 312.142L159.667 323.038L154.984 322.566L154.309 323.284L160.55 323.907L189.654 313.049C190.341 312.791 190.899 312.271 191.203 311.603C191.508 310.934 191.534 310.173 191.278 309.484C191.063 308.911 190.665 308.425 190.145 308.101C190.249 308.252 190.341 308.412 190.418 308.578Z" fill="white"/>
<path d="M158.633 318.7L160.568 323.888L155.451 323.373L154.332 323.26L155.862 321.636L158.633 318.7Z" fill="#EFC8C4"/>
<path d="M155.857 321.622C155.976 321.711 156.079 321.822 156.159 321.948C156.207 322.023 156.232 322.111 156.232 322.2C156.232 322.29 156.207 322.377 156.159 322.453C156.079 322.536 155.984 322.605 155.881 322.656C155.764 322.734 155.666 322.837 155.594 322.958C155.522 323.079 155.478 323.214 155.465 323.354L154.342 323.246L155.857 321.622Z" fill="#727A9C"/>
<path d="M250.01 351.835C250.01 351.835 275.219 346.543 317.518 353.252L300.948 341.091L270.8 334.92L249.472 340.585L250.01 351.835Z" fill="white"/>
<path opacity="0.1" d="M250.01 351.835C250.01 351.835 275.219 346.543 317.518 353.252L300.948 341.091L270.8 334.92L249.472 340.585L250.01 351.835Z" fill="black"/>
<path d="M247.054 357.557C247.054 357.557 259.749 323.217 324.949 357.666L301.547 342.606C301.547 342.606 245.487 327.117 239.01 344.966L247.054 357.557Z" fill="white"/>
<path opacity="0.1" d="M247.054 357.533C247.054 357.533 259.749 320.819 324.949 358.194L301.547 341.86C301.547 341.86 245.468 323.336 238.977 342.724L247.054 357.533Z" fill="black"/>
<path d="M247.054 357.548C247.054 357.548 259.749 320.291 324.949 357.666L301.547 341.331C301.547 341.331 245.487 323.336 239.01 342.748L247.054 357.548Z" fill="white"/>
<path opacity="0.1" d="M247.054 357.557C247.054 357.557 259.749 316.15 324.949 358.194L301.528 339.816C301.528 339.816 245.468 320.933 238.991 342.724L247.054 357.557Z" fill="black"/>
<path d="M247.054 357.533C247.054 357.533 259.749 315.622 324.949 357.666L301.528 339.287C301.528 339.287 245.468 320.404 238.991 342.195L247.054 357.533Z" fill="white"/>
<defs>
<linearGradient id="paint0_linear" x1="265.343" y1="346.911" x2="265.343" y2="173.651" gradientUnits="userSpaceOnUse">
<stop stop-color="#808080" stop-opacity="0.25"/>
<stop offset="0.54" stop-color="#808080" stop-opacity="0.12"/>
<stop offset="1" stop-color="#808080" stop-opacity="0.1"/>
</linearGradient>
</defs>
</svg>
