<svg width="839" height="1024" viewBox="0 0 839 1024" fill="none" xmlns="http://www.w3.org/2000/svg">
<path opacity="0.1" d="M740.693 712.38C740.261 712.74 739.828 713.1 739.388 713.453C724.547 725.611 708.605 735.914 691.699 743.403C691.14 743.653 690.578 743.901 690.012 744.145C679.285 748.809 668.108 752.24 656.699 754.369C650.529 755.506 644.255 756.225 638.22 755.437C629.763 754.331 622.23 750.326 615.034 746.152C607.553 741.818 600.178 737.194 592.724 732.691C590.089 731.086 587.452 729.513 584.814 727.97C577.534 723.711 570.141 719.676 562.512 716.21C553.063 711.945 543.274 708.522 532.868 706.677C532.038 706.525 531.207 706.388 530.375 706.265C529.545 706.136 528.702 706.008 527.874 705.906C527.046 705.804 526.217 705.696 525.389 705.601L524.102 705.468C523.683 705.419 523.254 705.388 522.839 705.343C521.593 705.22 520.332 705.136 519.09 705.03L519.042 705.027C518.216 704.967 517.394 704.91 516.571 704.852C511.888 704.575 507.179 704.452 502.474 704.346L499.503 704.281C497.974 704.241 496.447 704.2 494.921 704.157C494.024 704.134 493.124 704.101 492.227 704.071C491.575 704.05 490.927 704.032 490.271 704.001C486.966 703.87 483.665 703.682 480.383 703.393C479.601 703.325 478.813 703.251 478.041 703.179C471.521 702.543 465.1 701.274 458.869 699.389L458.788 699.365C455.729 698.425 452.748 697.266 449.868 695.895C448.214 695.115 446.627 694.256 445.078 693.318C440.927 690.846 437.205 687.729 434.044 684.079C427.855 676.873 424.2 667.652 418.124 660.354C405.567 645.32 384.791 640.604 365.871 634.638C361.238 633.18 356.645 631.6 352.094 629.898C349.075 628.774 346.081 627.6 343.112 626.375C325.019 618.919 307.801 609.595 291.726 598.547C285.163 594.037 278.652 588.949 272.992 583.181C270.847 581.011 268.829 578.717 266.948 576.311C260.547 568.127 256.118 558.706 255.369 547.871C254.683 538.943 256.681 529.784 259.721 521.057C260.941 517.55 262.337 514.091 263.909 510.68C266.368 505.33 269.217 500.159 272.431 495.209C273.155 494.091 273.897 492.982 274.671 491.901C275.973 490.023 277.329 488.18 278.739 486.371C286.216 476.74 295.085 468.272 305.032 461.265C316.064 453.516 328.373 447.61 338.835 439.2C339.274 438.847 339.707 438.487 340.14 438.127C341.68 436.838 343.187 435.471 344.66 434.027C356.159 422.618 363.012 407.628 370.62 393.261C370.887 392.757 371.153 392.253 371.424 391.753C372.274 390.167 373.141 388.593 374.025 387.031C382.437 372.153 393.486 358.009 406.725 347.369C407.161 347.012 407.611 346.661 408.055 346.318C416.381 339.836 425.555 334.76 435.467 331.751C445.641 328.66 456.16 327.872 466.456 328.091C471.477 328.204 476.462 328.56 481.412 329.158C484.966 329.592 488.492 330.142 491.987 330.809C520.186 336.251 546.208 349.541 566.353 369.114C567.423 370.148 568.473 371.199 569.504 372.269C570.585 373.392 571.645 374.532 572.685 375.688C584.897 389.161 594.641 404.733 603.975 420.619C607.093 425.953 610.2 431.277 613.307 436.601C614.691 438.967 616.081 441.323 617.478 443.67C624.347 455.157 631.642 466.475 639.635 477.171C641.487 479.654 643.373 482.091 645.296 484.483C651.941 492.84 659.217 500.663 667.062 507.887C670.116 510.679 673.269 513.357 676.52 515.921C678.163 517.217 679.838 518.478 681.545 519.706C699.134 532.431 719.108 541.23 738.889 550.382C741.749 551.703 744.61 553.031 747.436 554.369C751.17 556.14 754.884 557.94 758.554 559.814C781.431 571.449 795.848 588.695 804.929 613.547C806.985 619.187 808.648 625.28 807.535 631.511C806.423 637.742 802.606 643.338 798.815 648.622C793.416 656.135 787.732 663.571 781.722 670.776C781.358 671.195 780.994 671.615 780.655 672.056C768.518 686.674 755.131 700.397 740.693 712.38Z" fill="#536DFE"/>
<path d="M0 0C0 0 123.5 712 460.5 655C797.5 598 805 1024 805 1024H0V0Z" fill="#2D9CDB"/>
<path d="M548.346 650.703C547.178 651.628 546.011 652.552 544.843 653.474C544.158 654.017 543.464 654.555 542.775 655.094C542.275 655.485 541.779 655.877 541.269 656.264C538.715 658.233 536.128 660.159 533.489 662C532.861 662.439 532.224 662.878 531.601 663.308C526.318 666.921 520.7 670.017 514.823 672.551L514.747 672.584V650.703H548.346Z" fill="#65617D"/>
<path d="M600.879 564.708L601.408 548.397C601.092 548.152 600.771 547.925 600.464 547.699C600.594 542.836 600.317 537.97 599.633 533.154C597.499 516.843 583.644 516.489 579.735 519.855C579.217 520.302 578.652 520.692 578.049 521.017C578.403 518.689 578.842 516.357 579.159 514.053C580.868 501.628 578.215 487.65 568.575 479.619C564.538 476.263 559.605 474.2 555.172 471.391C547.232 466.382 540.958 458.984 532.927 454.108C524.897 449.231 513.619 447.404 506.613 453.674C503.899 456.1 502.147 459.466 499.362 461.808C494.169 466.17 486.073 466.458 481.541 471.33C481.314 471.575 481.097 471.825 480.889 472.09C477.113 476.933 478.147 483.802 479.35 489.812C480.8 497.044 480.2 502.841 486.403 504.918C486.427 505.206 486.446 505.494 486.479 505.778C486.984 510.214 488.452 514.487 490.781 518.297C493.11 522.107 496.243 525.361 499.962 527.833L498.956 528.192C496.275 529.136 493.862 530.052 492.319 530.68C486.654 532.989 474.729 535.996 474.729 535.996C474.729 535.996 474.445 539.395 474.497 544.408C470.522 548.728 463.89 556.319 461.94 560.818C459.107 567.38 443.104 586.174 438.841 589.011C434.578 591.848 429.956 595.214 429.956 595.214C429.956 595.214 423.205 598.939 420.009 599.293C417.795 599.538 410.945 598.226 410.945 598.226C410.945 598.226 383.588 564.708 385.363 590.427C387.138 616.146 408.991 617.02 408.991 617.02L431.023 616.666C431.023 616.666 442.929 618.261 448.259 613.833C452.81 610.057 476.395 589.337 483.972 579.937C484.147 580.131 484.322 580.32 484.506 580.504C484.506 580.504 487.522 576.605 487.881 580.504C488.24 584.403 485.922 586.169 487.168 587.585C488.415 589.002 492.144 593.968 492.319 595.918C492.493 597.867 487.348 605.831 496.048 611.874C496.185 611.969 496.331 612.058 496.492 612.148C498.045 615.684 502.983 619.144 502.983 619.144L529.632 618.79L579.914 622.69C579.914 622.69 581.411 621.372 583.436 619.22C586.141 621.703 589.894 623.832 594.124 622.524C594.124 622.524 600.167 615.259 600.346 610.472C600.346 610.472 596.437 600.365 594.681 597.353C592.925 594.341 595.927 587.779 595.927 587.779C595.927 587.779 598.056 581.396 599.303 581.396C600.549 581.396 599.657 577.147 599.657 577.147C599.186 576.453 598.891 575.654 598.798 574.82C598.705 573.986 598.817 573.142 599.123 572.361C600.167 569.674 600.879 564.708 600.879 564.708Z" fill="url(#paint0_linear)"/>
<path d="M570.737 561.035L568.848 563.245L561.22 572.129L551.254 572.733L535.302 573.715C535.302 573.715 513.794 547.798 517.835 542.156C519.303 540.122 519.544 537.436 519.251 534.901C519.213 534.551 519.161 534.202 519.1 533.857C518.617 531.175 517.772 528.57 516.589 526.115L517.117 525.874L517.457 525.718L536.265 517.136L540.92 515.012C541.152 516.295 541.582 517.534 542.195 518.684C542.284 518.864 542.383 519.043 542.487 519.213C548.903 529.835 569.476 523.117 569.476 523.117L570.737 561.035Z" fill="#EE8E9E"/>
<path d="M598.547 547.774C598.406 554.204 597.358 556.98 597.358 556.98L570.737 561.035L569.741 554.124L565.799 526.833L569.5 523.131C570.979 523.45 572.511 523.425 573.978 523.059C575.446 522.692 576.81 521.993 577.964 521.016C581.84 517.665 595.592 518.019 597.707 534.235C598.328 538.72 598.609 543.246 598.547 547.774Z" fill="#EE8E9E"/>
<path d="M592.245 623.086C592.245 623.086 598.236 615.858 598.415 611.1L592.42 601.049L587.132 595.384L577.256 614.447C577.256 614.447 583.781 625.73 592.245 623.086Z" fill="#DFE5EE"/>
<path opacity="0.1" d="M592.245 623.086C592.245 623.086 598.236 615.858 598.415 611.1L592.42 601.049L587.132 595.384L577.256 614.447C577.256 614.447 583.781 625.73 592.245 623.086Z" fill="black"/>
<path d="M542.775 655.094C542.275 655.485 541.779 655.877 541.269 656.264C538.715 658.233 536.128 660.159 533.489 662C532.861 662.439 532.224 662.878 531.601 663.308H505.82H389.999H381.006L336.45 661.712L300.619 661.41L291.649 660.938L246.896 658.578C245.256 653.192 244.024 647.691 243.209 642.121C243.024 640.865 242.859 639.604 242.736 638.344L291.63 641.054L300.6 641.559L380.987 646.044L389.98 646.544L505.801 653.012L514.714 653.512H514.79L542.775 655.094Z" fill="#D48A9B"/>
<path d="M603.174 619.928C593.35 622.76 583.818 626.41 574.849 631.579C574.136 631.99 573.432 632.41 572.72 632.839C572.007 633.269 571.303 633.699 570.619 634.142C569.934 634.586 569.245 635.025 568.565 635.474L567.517 636.182L566.493 636.88C565.482 637.574 564.486 638.297 563.49 638.995L563.453 639.024C562.796 639.496 562.145 639.968 561.493 640.44C557.816 643.164 554.219 646.015 550.635 648.876C549.88 649.48 549.123 650.083 548.365 650.684L544.871 653.455C544.187 653.998 543.493 654.536 542.803 655.075C542.303 655.466 541.807 655.858 541.298 656.245L514.861 654.985H514.785L505.872 654.57L389.999 649.079L381.006 648.65L300.619 644.83L291.649 644.401L243.209 642.121C243.024 640.865 242.859 639.604 242.736 638.344C242.491 636.182 242.308 634.01 242.189 631.829L291.645 614.362L300.614 611.185L308.762 608.305L323.609 609.079L357.925 610.84L381.02 612.053L390.013 612.526L395.758 612.828L397.132 612.903L445.483 615.429L445.993 615.462L467.567 616.585H467.813H467.954L470.112 616.694L477.467 617.081L486.663 617.553L489.694 617.714L490.265 617.747L494.552 617.969L495.774 618.03L499.867 618.247L501.496 618.337H501.548H501.888L505.716 618.54L511.646 618.851H511.674L513.515 618.946H513.714L514.814 619.007L517.514 619.149L519.874 619.272H519.898L522.546 619.409H522.589L524.595 619.517L526.134 619.597L531.596 619.885L532.578 619.937H532.918L533.39 619.966L534.99 620.051L535.708 620.088L541.279 620.376H541.789L550.012 620.306H550.069L581.335 620.051H581.935H582.567H584.427L594.492 619.97H595.993L603.174 619.928Z" fill="#EFC6CD"/>
<path d="M392.156 620.575L395.064 636.045L474.129 634.855C474.129 634.855 480.077 636.574 479.945 631.815C479.945 631.815 491.979 620.442 552.93 633.666L529.528 615.287L465.561 618.724L391.387 616.741L392.156 620.575Z" fill="#536DFE"/>
<path d="M393.61 616.874L396.386 633.666C396.386 633.666 464.366 631.683 475.054 633.533L466.977 618.195C466.977 618.195 425.873 614.362 393.61 616.874Z" fill="white"/>
<path opacity="0.1" d="M393.61 616.874L396.386 633.666C396.386 633.666 464.366 631.683 475.054 633.533L466.977 618.195C466.977 618.195 425.873 614.362 393.61 616.874Z" fill="black"/>
<path d="M394.625 616.812L397.363 632.429C397.363 632.429 464.48 630.588 475.054 632.306L467.09 618.044C467.09 618.044 426.482 614.475 394.625 616.812Z" fill="white"/>
<path opacity="0.1" d="M395.857 617.294L398.525 631.9C398.525 631.9 464.168 630.177 474.53 631.787L466.741 618.441C466.741 618.441 427.02 615.089 395.857 617.294Z" fill="black"/>
<path d="M396.386 616.76L399.068 631.395C399.068 631.395 464.711 629.672 475.073 631.282L467.265 617.922C467.265 617.922 427.548 614.574 396.386 616.76Z" fill="white"/>
<path d="M349.942 577.044C349.942 577.044 353.379 581.533 348.361 588.317C343.343 595.101 339.198 600.823 340.874 605.052C340.874 605.052 348.427 592.457 354.611 592.306C360.796 592.155 356.726 584.616 349.942 577.044Z" fill="#536DFE"/>
<path opacity="0.1" d="M349.942 577.044C350.244 577.479 350.481 577.956 350.646 578.46C356.66 585.541 359.866 592.15 354.083 592.292C348.696 592.443 342.238 602.074 340.689 604.51C340.743 604.692 340.804 604.876 340.874 605.062C340.874 605.062 348.427 592.467 354.611 592.316C360.796 592.164 356.726 584.616 349.942 577.044Z" fill="black"/>
<path d="M356.33 582.77C356.33 584.347 356.15 585.631 355.933 585.631C355.716 585.631 355.537 584.347 355.537 582.77C355.537 581.193 355.758 581.93 355.976 581.93C356.193 581.93 356.33 581.189 356.33 582.77Z" fill="#FFD037"/>
<path d="M358.52 584.654C357.132 585.414 355.924 585.872 355.82 585.678C355.716 585.485 356.764 584.734 358.142 583.96C359.521 583.185 358.983 583.752 359.087 583.96C359.191 584.167 359.908 583.898 358.52 584.654Z" fill="#FFD037"/>
<path d="M331.8 577.044C331.8 577.044 328.363 581.533 333.386 588.317C338.409 595.101 342.545 600.823 340.874 605.052C340.874 605.052 333.297 592.457 327.131 592.306C320.966 592.155 325.016 584.616 331.8 577.044Z" fill="#536DFE"/>
<path opacity="0.1" d="M331.8 577.044C331.501 577.48 331.264 577.957 331.097 578.46C325.082 585.541 321.877 592.15 327.66 592.292C333.046 592.443 339.509 602.074 341.058 604.51C341.007 604.692 340.946 604.876 340.874 605.062C340.874 605.062 333.297 592.467 327.131 592.316C320.966 592.164 325.016 584.616 331.8 577.044Z" fill="black"/>
<path d="M325.413 582.77C325.413 584.347 325.592 585.631 325.809 585.631C326.027 585.631 326.206 584.347 326.206 582.77C326.206 581.193 325.984 581.93 325.767 581.93C325.55 581.93 325.413 581.189 325.413 582.77Z" fill="#FFD037"/>
<path d="M323.222 584.654C324.61 585.414 325.824 585.872 325.927 585.678C326.031 585.485 324.983 584.734 323.605 583.96C322.226 583.185 322.764 583.752 322.661 583.96C322.557 584.167 321.834 583.898 323.222 584.654Z" fill="#FFD037"/>
<path d="M359.342 598.996L359.172 600.412L358.931 602.39L358.832 603.216L358.591 605.199L358.487 606.025L358.242 608.008L355.494 630.536C355.249 632.547 351.963 634.114 347.997 634.114H333.731C329.765 634.114 326.484 632.547 326.239 630.536L323.487 608.008L323.246 606.025L323.147 605.199L322.901 603.216L322.802 602.39L322.561 600.412L322.387 598.996C322.25 597.858 324.025 596.9 326.272 596.9H355.475C357.718 596.9 359.497 597.858 359.342 598.996Z" fill="#65617D"/>
<path d="M359.186 600.398L358.945 602.38H322.802L322.561 600.398H359.186Z" fill="#9D9CB5"/>
<path d="M358.846 603.207L358.605 605.189H323.147L322.901 603.207H358.846Z" fill="#9D9CB5"/>
<path d="M358.501 606.016L358.261 607.994H323.487L323.246 606.016H358.501Z" fill="#9D9CB5"/>
<path d="M402.91 597.173C402.91 597.173 393.742 588.36 394.097 599.817C394.451 611.275 402.91 597.173 402.91 597.173Z" fill="#EE8E9E"/>
<path d="M485.237 577.077C485.034 577.964 484.048 579.437 482.509 581.283C474.559 590.857 451.941 610.755 447.508 614.447C442.221 618.856 430.409 617.279 430.409 617.279L408.552 617.634C408.552 617.634 386.869 616.751 385.103 591.197C383.338 565.643 410.487 598.953 410.487 598.953C410.487 598.953 417.285 600.256 419.481 600.011C422.653 599.661 429.352 595.96 429.352 595.96C429.352 595.96 433.936 592.608 438.166 589.79C442.396 586.972 458.262 568.282 461.085 561.757C462.875 557.617 468.639 550.848 472.619 546.457C474.903 543.932 476.598 542.208 476.598 542.208C476.598 542.208 486.47 571.61 485.237 577.077Z" fill="#EE8E9E"/>
<path opacity="0.1" d="M485.237 577.077C485.034 577.964 484.048 579.437 482.509 581.283C474.483 573.111 472.807 556.805 472.619 546.438C474.903 543.913 476.598 542.19 476.598 542.19C476.598 542.19 486.47 571.61 485.237 577.077Z" fill="black"/>
<path opacity="0.1" d="M568.844 563.245L561.22 572.129L551.254 572.733L535.302 573.715C535.302 573.715 513.794 547.798 517.835 542.156C519.303 540.122 519.544 537.436 519.251 534.901C519.213 534.551 519.161 534.202 519.1 533.857C518.617 531.175 517.772 528.57 516.589 526.115L517.117 525.874L517.457 525.718C518.297 528.057 518.876 530.481 519.185 532.946C519.237 533.281 519.284 533.631 519.331 533.989C519.497 535.264 519.648 536.68 519.803 538.238C521.031 552.505 530.005 557.872 534.056 559.581C535.358 560.13 536.631 560.747 537.87 561.427C541.767 563.576 546.261 564.389 550.664 563.74C560.662 562.428 568.815 555.162 568.815 555.162L568.858 562.315L568.844 563.245Z" fill="black"/>
<path d="M569.151 618.682C569.151 618.682 503.573 618.502 494.929 612.511C486.285 606.521 491.408 598.585 491.228 596.645C491.049 594.704 487.352 589.771 486.12 588.355C484.888 586.939 487.178 585.182 486.824 581.307C486.469 577.431 483.476 581.307 483.476 581.307C471.131 568.787 473.775 537.058 473.775 537.058C473.775 537.058 485.577 534.065 491.242 531.766C492.777 531.143 495.165 530.255 497.851 529.297L498.848 528.938C505.773 526.46 514.006 523.66 514.006 523.66C514.006 523.66 515.588 522.541 517.179 525.888C517.906 527.427 518.637 529.906 519.223 533.867C519.275 534.202 519.322 534.551 519.369 534.91C519.534 536.185 519.685 537.601 519.841 539.159C521.069 553.425 530.043 558.793 534.093 560.502C535.396 561.051 536.669 561.667 537.908 562.348C541.805 564.497 546.299 565.309 550.701 564.661C560.7 563.348 568.853 556.083 568.853 556.083L568.896 563.235L569.018 584.724L569.151 618.682Z" fill="#DFE5EE"/>
<path d="M566.328 590.829L565.27 597.527C565.27 597.527 539.178 604.047 528.957 605.987C518.737 607.927 496.695 605.458 495.109 609.688C493.522 613.918 501.808 619.739 501.808 619.739L528.244 619.385L578.134 623.266C578.134 623.266 597.174 606.516 591.003 594.879C584.833 583.242 566.328 590.829 566.328 590.829Z" fill="#EE8E9E"/>
<path opacity="0.1" d="M512.562 537.941C512.562 537.941 500.571 547.812 502.865 552.575C505.159 557.339 512.562 537.941 512.562 537.941Z" fill="black"/>
<path opacity="0.1" d="M497.752 555.743C497.752 555.743 485.587 576.723 486.295 578.309C487.003 579.895 490.35 585.536 490.171 581.307C489.991 577.077 497.752 555.743 497.752 555.743Z" fill="black"/>
<path opacity="0.1" d="M502.69 559.449C502.69 559.449 499.858 572.493 497.049 577.959C494.24 583.426 502.69 559.449 502.69 559.449Z" fill="black"/>
<path opacity="0.1" d="M542.511 519.227C540.18 523.502 536.859 527.156 532.826 529.885C528.794 532.613 524.166 534.336 519.331 534.91H519.275C511.669 535.803 504.006 533.797 497.814 529.292C504.895 526.733 513.968 523.655 513.968 523.655C513.968 523.655 515.55 522.537 517.141 525.884L540.943 515.026C541.211 516.509 541.742 517.932 542.511 519.227Z" fill="black"/>
<path d="M546.231 503.563C546.24 508.873 544.856 514.091 542.218 518.699C540.958 520.896 539.431 522.928 537.672 524.751C532.764 529.86 526.225 533.093 519.185 533.89H519.124C517.998 534.019 516.867 534.084 515.734 534.084C508.241 534.084 501.01 531.325 495.421 526.334C489.831 521.343 486.275 514.469 485.431 507.024C485.3 505.881 485.235 504.732 485.237 503.582C485.237 495.494 488.45 487.737 494.17 482.018C499.889 476.299 507.646 473.086 515.734 473.086C523.822 473.086 531.579 476.299 537.299 482.018C543.018 487.737 546.231 495.494 546.231 503.582V503.563Z" fill="#EE8E9E"/>
<path opacity="0.1" d="M565.978 561.271L568.811 557.022C568.811 557.022 584.323 538.512 599.496 550.324L598.968 566.544C598.968 566.544 598.259 571.478 597.202 574.098C596.898 574.875 596.788 575.715 596.88 576.545C596.972 577.374 597.264 578.169 597.731 578.861C597.731 578.861 598.613 583.11 597.381 583.11C596.149 583.11 594.03 589.455 594.03 589.455C594.03 589.455 591.032 595.979 592.797 598.977C594.563 601.974 598.439 612.02 598.439 612.02C598.439 612.02 592.269 608.319 590.503 602.149C590.503 602.149 575.519 590.512 563.882 597.9L565.978 561.271Z" fill="black"/>
<path opacity="0.1" d="M598.547 547.774C598.406 554.204 597.358 556.98 597.358 556.98L570.737 561.035L569.741 554.124C573.225 550.489 585.895 538.932 598.547 547.774Z" fill="black"/>
<path d="M565.978 560.327L568.811 556.078C568.811 556.078 584.323 537.568 599.496 549.379L598.968 565.6C598.968 565.6 598.259 570.534 597.202 573.154C596.898 573.931 596.788 574.771 596.88 575.6C596.972 576.43 597.264 577.225 597.731 577.917C597.731 577.917 598.613 582.166 597.381 582.166C596.149 582.166 594.03 588.511 594.03 588.511C594.03 588.511 591.032 595.035 592.797 598.033C594.563 601.03 598.439 611.076 598.439 611.076C598.439 611.076 592.269 607.375 590.503 601.205C590.503 601.205 575.519 589.568 563.882 596.956L565.978 560.327Z" fill="#DFE5EE"/>
<path opacity="0.1" d="M591.008 548.341C591.008 548.341 565.449 564.033 566.682 577.794C566.682 577.794 580.962 552.571 591.008 548.341Z" fill="black"/>
<path opacity="0.1" d="M568.839 563.249L568.962 584.739C564.128 584.956 559.572 584.328 555.97 581.198C553.463 579.017 552.004 576.005 551.249 572.748C550.687 570.123 550.481 567.435 550.635 564.755C550.633 564.729 550.633 564.702 550.635 564.675C550.933 558.741 552.297 552.807 551.58 546.91C550.862 541.014 547.288 534.792 541.453 533.55C540.301 533.3 539.008 533.21 538.186 532.365C537.28 531.421 537.323 529.953 537.422 528.645L537.592 526.441C537.634 525.874 537.653 525.312 537.653 524.751C537.65 519.739 535.906 514.883 532.72 511.014C529.535 507.144 525.104 504.501 520.186 503.535L519.997 503.502C518.354 503.172 516.645 502.846 515.002 503.224C511.877 503.946 509.857 506.977 506.977 508.417C501.453 511.174 492.243 508.157 486.46 507.208C486.082 507.147 485.724 507.076 485.379 506.996C485.248 505.853 485.183 504.704 485.185 503.554C485.188 498.883 486.263 494.275 488.328 490.085C490.393 485.895 493.393 482.236 497.096 479.389C500.799 476.543 505.107 474.585 509.687 473.666C514.267 472.748 518.997 472.894 523.511 474.093C528.026 475.292 532.204 477.513 535.725 480.582C539.246 483.652 542.014 487.49 543.817 491.799C545.619 496.108 546.408 500.774 546.122 505.436C545.835 510.098 544.482 514.633 542.166 518.689C542.256 518.869 542.355 519.048 542.459 519.218C548.875 529.84 569.448 523.122 569.448 523.122L570.685 561.026L568.839 563.249Z" fill="black"/>
<path d="M508.086 507.893C510.947 506.448 512.968 503.417 516.112 502.7C517.75 502.322 519.459 502.648 521.111 502.973L521.3 503.011C526.5 504.04 531.142 506.941 534.346 511.163C537.551 515.385 539.095 520.637 538.687 525.922L538.517 528.126C538.413 529.429 538.371 530.907 539.286 531.841C540.103 532.686 541.397 532.786 542.549 533.022C548.384 534.268 551.957 540.457 552.675 546.386C553.392 552.316 552.004 558.269 551.731 564.227C551.457 570.184 552.552 576.76 557.056 580.674C564.137 586.811 574.901 583.318 584.272 582.756C580.127 582.756 577.02 578.479 576.794 574.343C576.567 570.208 578.408 566.271 580.169 562.541C581.93 558.812 583.696 554.799 583.304 550.673C582.766 545.008 578.3 540.471 576.591 535.019C574.598 528.674 576.52 521.862 577.422 515.267C579.116 502.917 576.477 489.014 566.918 481.031C562.914 477.693 558.019 475.64 553.619 472.845C545.735 467.846 539.518 460.514 531.549 455.652C523.58 450.789 512.392 448.986 505.438 455.217C502.747 457.63 501.01 460.977 498.243 463.304C492.838 467.86 484.246 467.945 479.912 473.534C476.183 478.345 477.193 485.176 478.387 491.148C479.978 499.112 479.081 505.31 487.593 506.726C493.352 507.638 502.558 510.654 508.086 507.893Z" fill="#603556"/>
<path opacity="0.1" d="M578.219 578.951C571.398 579.786 564.637 580.216 559.671 575.911C555.167 571.997 554.058 565.426 554.346 559.463C554.634 553.501 556.012 547.543 555.29 541.618C554.568 535.694 550.999 529.505 545.164 528.258C544.012 528.013 542.723 527.923 541.902 527.078C540.991 526.134 541.028 524.661 541.132 523.358L541.302 521.153C541.71 515.869 540.166 510.618 536.961 506.397C533.757 502.175 529.115 499.276 523.915 498.248L523.727 498.21C522.074 497.884 520.365 497.559 518.727 497.936C515.602 498.659 513.581 501.713 510.702 503.129C505.174 505.891 495.973 502.874 490.18 501.925C481.683 500.533 482.57 494.325 480.974 486.347C480.082 481.89 479.294 476.952 480.502 472.732C480.276 472.972 480.059 473.204 479.851 473.492C476.121 478.302 477.132 485.133 478.326 491.105C479.917 499.069 479.02 505.268 487.532 506.684C493.319 507.628 502.525 510.649 508.053 507.888C510.914 506.443 512.935 503.412 516.079 502.695C517.717 502.317 519.426 502.643 521.078 502.969L521.267 503.006C526.467 504.035 531.109 506.936 534.313 511.158C537.518 515.381 539.062 520.632 538.654 525.917L538.484 528.121C538.38 529.424 538.338 530.902 539.253 531.837C540.07 532.682 541.364 532.781 542.516 533.017C548.351 534.263 551.924 540.452 552.642 546.382C553.359 552.311 551.976 558.264 551.698 564.222C551.419 570.179 552.519 576.756 557.023 580.669C564.104 586.806 574.868 583.313 584.238 582.751C581.694 582.765 579.555 581.151 578.219 578.951Z" fill="black"/>
<path d="M386.628 594.7L415.732 583.842C416.42 583.585 417.182 583.612 417.85 583.916C418.519 584.221 419.039 584.778 419.296 585.466C419.553 586.154 419.527 586.916 419.222 587.584C418.918 588.252 418.36 588.772 417.673 589.03L388.568 599.888L382.327 599.265L386.628 594.7Z" fill="#5C5C8E"/>
<path opacity="0.1" d="M418.418 584.578C418.675 585.267 418.648 586.029 418.342 586.698C418.037 587.366 417.478 587.886 416.79 588.142L387.667 599.038L382.984 598.566L382.309 599.284L388.55 599.907L417.654 589.049C418.341 588.791 418.899 588.271 419.203 587.603C419.508 586.934 419.534 586.173 419.278 585.484C419.063 584.911 418.665 584.425 418.145 584.101C418.249 584.252 418.341 584.412 418.418 584.578Z" fill="white"/>
<path d="M386.633 594.7L388.568 599.888L383.451 599.373L382.332 599.26L383.862 597.636L386.633 594.7Z" fill="#EFC8C4"/>
<path d="M383.857 597.622C383.976 597.711 384.079 597.822 384.159 597.948C384.207 598.023 384.232 598.111 384.232 598.2C384.232 598.29 384.207 598.377 384.159 598.453C384.079 598.536 383.984 598.605 383.881 598.656C383.764 598.734 383.666 598.837 383.594 598.958C383.522 599.079 383.478 599.214 383.465 599.354L382.342 599.246L383.857 597.622Z" fill="#727A9C"/>
<path d="M478.01 627.835C478.01 627.835 503.219 622.543 545.518 629.252L528.948 617.091L498.8 610.92L477.472 616.585L478.01 627.835Z" fill="white"/>
<path opacity="0.1" d="M478.01 627.835C478.01 627.835 503.219 622.543 545.518 629.252L528.948 617.091L498.8 610.92L477.472 616.585L478.01 627.835Z" fill="black"/>
<path d="M475.054 633.557C475.054 633.557 487.749 599.217 552.949 633.666L529.547 618.606C529.547 618.606 473.487 603.117 467.01 620.966L475.054 633.557Z" fill="white"/>
<path opacity="0.1" d="M475.054 633.533C475.054 633.533 487.749 596.819 552.949 634.194L529.547 617.86C529.547 617.86 473.468 599.336 466.977 618.724L475.054 633.533Z" fill="black"/>
<path d="M475.054 633.548C475.054 633.548 487.749 596.291 552.949 633.666L529.547 617.331C529.547 617.331 473.487 599.336 467.01 618.748L475.054 633.548Z" fill="white"/>
<path opacity="0.1" d="M475.054 633.557C475.054 633.557 487.749 592.15 552.949 634.194L529.528 615.816C529.528 615.816 473.468 596.933 466.991 618.724L475.054 633.557Z" fill="black"/>
<path d="M475.054 633.533C475.054 633.533 487.749 591.622 552.949 633.666L529.528 615.287C529.528 615.287 473.468 596.404 466.991 618.195L475.054 633.533Z" fill="white"/>
<defs>
<linearGradient id="paint0_linear" x1="493.343" y1="622.911" x2="493.343" y2="449.651" gradientUnits="userSpaceOnUse">
<stop stop-color="#808080" stop-opacity="0.25"/>
<stop offset="0.54" stop-color="#808080" stop-opacity="0.12"/>
<stop offset="1" stop-color="#808080" stop-opacity="0.1"/>
</linearGradient>
</defs>
</svg>
