<svg width="798" height="1024" viewBox="0 0 798 1024" fill="none" xmlns="http://www.w3.org/2000/svg">
<path d="M360 0H798V1024H199.5C199.5 1024 -298.5 784.5 279.75 512C858 239.5 360 0 360 0Z" fill="#219653"/>
<g clip-path="url(#clip0)">
<path d="M324.508 732.253C476.115 732.253 599.016 726.04 599.016 718.377C599.016 710.713 476.115 704.501 324.508 704.501C172.901 704.501 50 710.713 50 718.377C50 726.04 172.901 732.253 324.508 732.253Z" fill="#3F3D56"/>
<path d="M592.584 747.419C651.908 747.419 700 744.988 700 741.99C700 738.991 651.908 736.56 592.584 736.56C533.259 736.56 485.168 738.991 485.168 741.99C485.168 744.988 533.259 747.419 592.584 747.419Z" fill="#3F3D56"/>
<path d="M288.946 761.212C348.27 761.212 396.362 758.781 396.362 755.782C396.362 752.784 348.27 750.352 288.946 750.352C229.622 750.352 181.53 752.784 181.53 755.782C181.53 758.781 229.622 761.212 288.946 761.212Z" fill="#3F3D56"/>
<path d="M552.61 592.628L562.248 585.929L582.224 560.217C582.793 559.484 583.048 558.555 582.933 557.633C582.817 556.712 582.34 555.874 581.607 555.305C580.873 554.735 579.944 554.48 579.023 554.596C578.101 554.711 577.264 555.188 576.694 555.922L556.719 581.633L552.61 592.628Z" fill="#2F2E41"/>
<path d="M638.641 348.199C638.641 348.199 626.52 337.332 610.219 357.812C593.918 378.293 568.422 388.324 562.57 396.266C562.57 396.266 586.812 386.234 595.172 382.055C603.531 377.875 603.113 378.711 603.113 378.711C603.113 378.711 591.828 386.652 589.738 394.594C587.648 402.535 589.32 409.223 585.558 417.164C581.797 425.106 657.449 422.598 657.449 422.598C657.449 422.598 664.973 409.641 662.883 396.266C660.793 382.891 662.047 349.871 638.641 348.199Z" fill="#2F2E41"/>
<path d="M614.816 380.383C614.816 380.383 617.742 400.863 605.203 405.461C592.664 410.059 597.262 416.328 597.262 416.328L616.07 425.524L636.133 419.254L642.82 409.223C642.82 409.223 631.953 406.715 634.879 399.191C637.805 391.668 638.641 389.16 638.641 389.16L614.816 380.383Z" fill="#FFB9B9"/>
<path opacity="0.1" d="M614.816 380.383C614.816 380.383 617.742 400.863 605.203 405.461C592.664 410.059 597.262 416.328 597.262 416.328L616.07 425.524L636.133 419.254L642.82 409.223C642.82 409.223 631.953 406.715 634.879 399.191C637.805 391.668 638.641 389.16 638.641 389.16L614.816 380.383Z" fill="black"/>
<path d="M667.481 438.899C667.481 438.899 664.555 477.352 665.391 479.024C666.227 480.696 665.391 538.794 665.391 538.794C665.391 538.794 671.243 570.142 663.719 571.813C656.195 573.485 657.867 536.704 657.867 536.704L650.344 488.219L651.18 440.153L667.481 438.899Z" fill="#FFB9B9"/>
<path opacity="0.1" d="M667.481 438.899C667.481 438.899 664.555 477.352 665.391 479.024C666.227 480.696 665.391 538.794 665.391 538.794C665.391 538.794 671.243 570.142 663.719 571.813C656.195 573.485 657.867 536.704 657.867 536.704L650.344 488.219L651.18 440.153L667.481 438.899Z" fill="black"/>
<path d="M585.976 554.677C585.976 554.677 572.183 606.923 572.601 632.419C573.019 657.915 578.453 693.443 578.453 693.443C578.453 693.443 579.289 708.908 578.035 710.58C576.781 712.252 584.304 719.357 584.304 719.357L592.246 714.759L595.172 711.416V708.49C595.172 708.49 590.574 694.279 594.336 682.994C598.097 671.708 600.187 643.286 596.426 634.509L622.34 557.602L585.976 554.677Z" fill="#FFB9B9"/>
<path d="M585.14 712.67C585.14 712.67 580.125 706.4 576.781 708.49C573.437 710.58 568.004 724.791 568.004 724.791C568.004 724.791 549.195 742.764 562.57 743.6C575.945 744.435 581.797 739.838 583.469 736.494C585.14 733.15 600.605 724.373 600.605 724.373C600.605 724.373 598.933 708.49 596.426 708.072C593.918 707.654 590.156 714.341 590.156 714.341L585.14 712.67Z" fill="#2F2E41"/>
<path d="M631.535 558.02V609.849C631.584 616.137 632.002 622.418 632.789 628.657C634.043 637.853 625.684 706.4 625.684 706.4L626.52 718.521L636.969 717.685L638.223 707.236L653.27 661.259C653.27 661.259 658.285 633.255 655.778 622.806C653.27 612.357 668.735 545.481 668.735 545.481L631.535 558.02Z" fill="#FFB9B9"/>
<path d="M623.176 715.595L626.271 714.922C626.271 714.922 628.609 709.744 631.535 710.998C633.594 711.947 635.545 713.116 637.353 714.484L638.641 716.849C638.641 716.849 641.566 723.119 645.328 727.299C649.09 731.478 653.27 740.674 647 741.51C640.731 742.345 632.371 742.763 629.863 740.674C627.356 738.584 629.027 735.24 626.52 734.404C624.012 733.568 621.922 731.06 622.34 730.224C622.758 729.388 623.176 715.595 623.176 715.595Z" fill="#2F2E41"/>
<path d="M631.535 396.266C642.616 396.266 651.598 387.283 651.598 376.203C651.598 365.123 642.616 356.141 631.535 356.141C620.455 356.141 611.473 365.123 611.473 376.203C611.473 387.283 620.455 396.266 631.535 396.266Z" fill="#FFB9B9"/>
<path d="M596.426 408.805L601.947 406.877C601.947 406.877 599.769 410.477 611.473 412.567C623.176 414.656 635.296 415.396 640.73 408.548C640.73 408.548 642.82 407.551 645.746 410.477C648.672 413.403 650.344 412.567 650.344 412.567L648.254 423.434L644.074 443.496L638.641 458.543L623.176 455.2L606.457 443.079L600.187 426.778V411.731L596.426 408.805Z" fill="#00BFA6"/>
<path d="M647.418 414.656L651.598 411.731C651.598 411.731 665.809 414.238 666.645 420.926L655.778 441.825C657.994 447.64 657.844 454.092 655.36 459.797C651.18 469.411 651.598 471.5 651.598 471.5L648.672 484.04L595.59 488.219C595.59 488.219 593.5 483.204 592.664 482.368C591.828 481.532 591.828 478.606 592.664 478.606C593.5 478.606 592.664 477.352 591.828 476.098C590.992 474.844 590.574 474.426 591.828 472.754C593.082 471.083 589.738 456.036 589.738 456.036V439.735L575.527 420.926C575.527 420.926 580.543 413.403 583.051 412.567C585.558 411.731 597.488 408.434 597.488 408.434L600.187 412.409L603.949 442.66L609.383 461.051L632.261 457.164L641.148 442.242L647 424.688L647.418 414.656Z" fill="#00BFA6"/>
<path d="M663.301 418.418L666.645 420.926C666.645 420.926 669.571 444.332 668.735 446.004C667.899 447.676 653.27 449.348 652.852 448.512C652.434 447.676 663.301 418.418 663.301 418.418Z" fill="#00BFA6"/>
<path d="M572.601 443.914C572.601 443.914 575.527 482.368 574.691 484.04C573.855 485.711 574.691 543.809 574.691 543.809C574.691 543.809 568.84 575.157 576.363 576.829C583.887 578.501 582.215 541.72 582.215 541.72L589.738 493.235L588.902 445.168L572.601 443.914Z" fill="#FFB9B9"/>
<path d="M594.336 406.715L598.516 434.301C598.516 434.301 594.754 475.262 595.59 483.622L596.426 486.129C596.426 486.129 594.754 485.293 594.336 486.965C593.918 488.637 594.336 494.071 594.336 494.071C594.336 494.071 591.828 496.579 590.992 510.372C590.156 524.165 580.125 557.184 583.887 558.438C587.648 559.692 610.219 565.962 622.34 564.708C634.461 563.454 677.93 548.825 677.512 545.063C677.094 541.302 656.195 488.219 656.195 488.219C656.195 488.219 652.434 481.95 652.434 481.114C652.434 480.278 657.449 476.934 656.195 473.59C654.942 470.247 648.254 435.137 648.254 435.137L652.852 410.059L646.582 408.387L641.984 432.629C641.984 432.629 624.012 441.407 605.203 433.465L601.023 405.043L594.336 406.715Z" fill="#2F2E41"/>
<path d="M578.871 419.672L575.527 420.926C575.527 420.926 569.258 447.258 570.929 447.258C572.601 447.258 592.664 449.766 592.664 448.93C592.664 448.094 588.902 427.614 588.902 427.614L578.871 419.672Z" fill="#00BFA6"/>
<path d="M615.652 358.648C615.652 358.648 646.582 379.965 654.942 370.352C663.301 360.738 640.313 352.379 640.313 352.379L621.086 350.289L615.652 358.648Z" fill="#2F2E41"/>
<path d="M134.23 307V714.841H484.756V307H134.23ZM152.933 681.055C151.74 681.055 150.573 680.701 149.581 680.038C148.589 679.375 147.816 678.433 147.359 677.331C146.903 676.228 146.783 675.015 147.016 673.845C147.249 672.674 147.823 671.599 148.667 670.756C149.511 669.912 150.586 669.337 151.756 669.105C152.926 668.872 154.14 668.991 155.242 669.448C156.344 669.905 157.287 670.678 157.95 671.67C158.612 672.662 158.966 673.829 158.966 675.022C158.966 676.622 158.331 678.156 157.199 679.288C156.068 680.419 154.533 681.055 152.933 681.055ZM152.933 651.493C151.74 651.493 150.573 651.139 149.581 650.476C148.589 649.813 147.816 648.871 147.359 647.768C146.903 646.666 146.783 645.453 147.016 644.282C147.249 643.112 147.823 642.037 148.667 641.193C149.511 640.35 150.586 639.775 151.756 639.542C152.926 639.309 154.14 639.429 155.242 639.885C156.344 640.342 157.287 641.115 157.95 642.108C158.612 643.1 158.966 644.266 158.966 645.459C158.966 647.059 158.331 648.594 157.199 649.725C156.068 650.857 154.533 651.493 152.933 651.493ZM152.933 622.533C151.74 622.533 150.573 622.18 149.581 621.517C148.589 620.854 147.816 619.911 147.359 618.809C146.903 617.707 146.783 616.494 147.016 615.323C147.249 614.153 147.823 613.078 148.667 612.234C149.511 611.39 150.586 610.816 151.756 610.583C152.926 610.35 154.14 610.47 155.242 610.926C156.344 611.383 157.287 612.156 157.95 613.148C158.612 614.141 158.966 615.307 158.966 616.5C158.966 618.1 158.331 619.635 157.199 620.766C156.068 621.898 154.533 622.533 152.933 622.533ZM152.933 592.971C151.74 592.971 150.573 592.617 149.581 591.954C148.589 591.291 147.816 590.349 147.359 589.247C146.903 588.144 146.783 586.931 147.016 585.761C147.249 584.591 147.823 583.516 148.667 582.672C149.511 581.828 150.586 581.253 151.756 581.021C152.926 580.788 154.14 580.907 155.242 581.364C156.344 581.821 157.287 582.594 157.95 583.586C158.612 584.578 158.966 585.745 158.966 586.938C158.966 588.538 158.331 590.073 157.199 591.204C156.068 592.335 154.533 592.971 152.933 592.971ZM152.933 563.409C151.74 563.409 150.573 563.055 149.581 562.392C148.589 561.729 147.816 560.787 147.359 559.684C146.903 558.582 146.783 557.369 147.016 556.198C147.249 555.028 147.823 553.953 148.667 553.109C149.511 552.266 150.586 551.691 151.756 551.458C152.926 551.225 154.14 551.345 155.242 551.802C156.344 552.258 157.287 553.031 157.95 554.024C158.612 555.016 158.966 556.182 158.966 557.375C158.966 558.976 158.331 560.51 157.199 561.642C156.068 562.773 154.533 563.409 152.933 563.409ZM152.933 534.45C151.74 534.45 150.573 534.096 149.581 533.433C148.589 532.77 147.816 531.828 147.359 530.725C146.903 529.623 146.783 528.41 147.016 527.239C147.249 526.069 147.823 524.994 148.667 524.15C149.511 523.307 150.586 522.732 151.756 522.499C152.926 522.266 154.14 522.386 155.242 522.842C156.344 523.299 157.287 524.072 157.95 525.065C158.612 526.057 158.966 527.223 158.966 528.416C158.966 530.016 158.331 531.551 157.199 532.682C156.068 533.814 154.533 534.45 152.933 534.45ZM152.933 504.887C151.74 504.887 150.573 504.533 149.581 503.87C148.589 503.207 147.816 502.265 147.359 501.163C146.903 500.06 146.783 498.847 147.016 497.677C147.249 496.507 147.823 495.432 148.667 494.588C149.511 493.744 150.586 493.17 151.756 492.937C152.926 492.704 154.14 492.823 155.242 493.28C156.344 493.737 157.287 494.51 157.95 495.502C158.612 496.494 158.966 497.661 158.966 498.854C158.966 500.454 158.331 501.989 157.199 503.12C156.068 504.251 154.533 504.887 152.933 504.887ZM152.933 475.325C151.74 475.325 150.573 474.971 149.581 474.308C148.589 473.645 147.816 472.703 147.359 471.6C146.903 470.498 146.783 469.285 147.016 468.115C147.249 466.944 147.823 465.869 148.667 465.025C149.511 464.182 150.586 463.607 151.756 463.374C152.926 463.142 154.14 463.261 155.242 463.718C156.344 464.174 157.287 464.948 157.95 465.94C158.612 466.932 158.966 468.098 158.966 469.292C158.966 470.892 158.331 472.426 157.199 473.558C156.068 474.689 154.533 475.325 152.933 475.325ZM152.933 446.366C151.74 446.366 150.573 446.012 149.581 445.349C148.589 444.686 147.816 443.744 147.359 442.641C146.903 441.539 146.783 440.326 147.016 439.155C147.249 437.985 147.823 436.91 148.667 436.066C149.511 435.223 150.586 434.648 151.756 434.415C152.926 434.182 154.14 434.302 155.242 434.759C156.344 435.215 157.287 435.989 157.95 436.981C158.612 437.973 158.966 439.139 158.966 440.332C158.966 441.933 158.331 443.467 157.199 444.599C156.068 445.73 154.533 446.366 152.933 446.366ZM152.933 416.803C151.74 416.803 150.573 416.449 149.581 415.786C148.589 415.124 147.816 414.181 147.359 413.079C146.903 411.976 146.783 410.763 147.016 409.593C147.249 408.423 147.823 407.348 148.667 406.504C149.511 405.66 150.586 405.086 151.756 404.853C152.926 404.62 154.14 404.74 155.242 405.196C156.344 405.653 157.287 406.426 157.95 407.418C158.612 408.41 158.966 409.577 158.966 410.77C158.966 412.37 158.331 413.905 157.199 415.036C156.068 416.168 154.533 416.803 152.933 416.803ZM152.933 387.241C151.74 387.241 150.573 386.887 149.581 386.224C148.589 385.561 147.816 384.619 147.359 383.516C146.903 382.414 146.783 381.201 147.016 380.031C147.249 378.86 147.823 377.785 148.667 376.942C149.511 376.098 150.586 375.523 151.756 375.29C152.926 375.058 154.14 375.177 155.242 375.634C156.344 376.09 157.287 376.864 157.95 377.856C158.612 378.848 158.966 380.014 158.966 381.208C158.966 382.808 158.331 384.342 157.199 385.474C156.068 386.605 154.533 387.241 152.933 387.241ZM152.933 358.885C151.74 358.885 150.573 358.531 149.581 357.868C148.589 357.205 147.816 356.263 147.359 355.161C146.903 354.058 146.783 352.845 147.016 351.675C147.249 350.505 147.823 349.43 148.667 348.586C149.511 347.742 150.586 347.167 151.756 346.935C152.926 346.702 154.14 346.821 155.242 347.278C156.344 347.735 157.287 348.508 157.95 349.5C158.612 350.492 158.966 351.659 158.966 352.852C158.966 354.452 158.331 355.987 157.199 357.118C156.068 358.249 154.533 358.885 152.933 358.885Z" fill="#F2F2F2"/>
<path opacity="0.3" d="M484.756 337.973V336.766H175.712V307H174.505V336.766H134.231V337.973H174.505V366.125H134.231V367.331H174.505V395.483H134.231V396.69H174.505V424.841H134.231V426.048H174.505V454.199H134.231V455.406H174.505V483.558H134.231V484.764H174.505V512.915H134.231V514.122H174.505V542.274H134.231V543.481H174.505V571.632H134.231V572.838H174.505V600.99H134.231V602.196H174.505V630.348H134.231V631.555H174.505V659.706H134.231V660.913H174.505V689.064H134.231V690.271H174.505V714.841H175.712V690.271H484.756V689.064H175.712V660.913H484.756V659.706H175.712V631.555H484.756V630.348H175.712V602.196H484.756V600.99H175.712V572.838H484.756V571.632H175.712V543.481H484.756V542.274H175.712V514.122H484.756V512.915H175.712V484.764H484.756V483.558H175.712V455.406H484.756V454.199H175.712V426.048H484.756V424.841H175.712V396.69H484.756V395.483H175.712V367.331H484.756V366.125H175.712V337.973H484.756Z" fill="#3F3D56"/>
<path d="M212.532 411.481C208.887 414.305 204.971 416.759 200.841 418.809C198.172 420.134 195.211 421.313 192.284 420.757C189.357 420.202 186.728 417.21 187.622 414.368C187.932 413.538 188.455 412.805 189.138 412.241C189.821 411.677 190.64 411.302 191.514 411.155C193.271 410.884 195.069 411.144 196.678 411.9C199.625 413.163 202.084 415.344 203.688 418.12C204.505 419.544 205.146 421.177 206.505 422.101C207.599 422.722 208.825 423.077 210.082 423.136C213.04 423.506 216.076 423.872 218.975 423.173C221.873 422.473 224.65 420.468 225.389 417.579" stroke="#3F3D56" stroke-width="2" stroke-miterlimit="10"/>
<path d="M234.894 397.717C235.123 406.578 234.999 415.439 234.522 424.299L240.809 423.111C243.127 422.673 245.764 422.005 246.811 419.891C247.788 417.921 246.859 415.434 245.233 413.953C243.607 412.472 241.441 411.765 239.345 411.098L235.913 410.006" stroke="#3F3D56" stroke-width="2" stroke-miterlimit="10"/>
<path d="M268.784 407.486C266.488 407.168 264.146 406.863 261.865 407.272C259.583 407.681 257.333 408.923 256.281 410.988C254.338 414.803 257.315 419.501 261.086 421.525C264.226 423.197 267.844 423.742 271.337 423.068" stroke="#3F3D56" stroke-width="2" stroke-miterlimit="10"/>
<path d="M218.305 377.136C212.531 382.565 206.758 382.565 200.985 377.136C198.643 374.889 196.784 372.186 195.524 369.195C194.264 366.203 193.629 362.986 193.657 359.74V307H225.633V359.74C225.661 362.986 225.025 366.203 223.765 369.195C222.505 372.186 220.647 374.889 218.305 377.136Z" fill="#00BFA6"/>
<path d="M397.094 564.452C397.094 613.822 367.749 631.058 331.544 631.058C330.706 631.058 329.867 631.046 329.035 631.028C327.357 630.992 325.692 630.914 324.051 630.799C291.376 628.488 265.994 610.365 265.994 564.452C265.994 516.947 326.7 456.996 331.273 452.55C331.273 452.549 331.273 452.548 331.273 452.547C331.274 452.547 331.274 452.546 331.275 452.545C331.275 452.545 331.276 452.544 331.277 452.544C331.277 452.544 331.278 452.544 331.279 452.544C331.454 452.369 331.544 452.284 331.544 452.284C331.544 452.284 397.094 515.089 397.094 564.452Z" fill="#00BFA6"/>
<path d="M329.155 623.505L353.131 590.009L329.095 627.185L329.035 631.028C327.357 630.992 325.692 630.914 324.051 630.799L326.633 581.412L326.615 581.025L326.658 580.959L326.905 576.289L302.809 539.023L326.977 572.79L327.038 573.78L328.986 536.465L308.359 497.955L329.24 529.919L331.273 452.55L331.279 452.284V452.544L330.941 513.551L351.478 489.364L330.857 518.806L330.314 552.217L349.493 520.151L330.235 557.134L329.933 575.71L357.764 531.077L329.825 582.19L329.155 623.505Z" fill="#3F3D56"/>
</g>
<defs>
<clipPath id="clip0">
<rect x="50" y="307" width="650" height="454.212" fill="white"/>
</clipPath>
</defs>
</svg>
